<svg xmlns="http://www.w3.org/2000/svg" xmlns:xlink="http://www.w3.org/1999/xlink">
    <defs>
    <symbol id="example-1" viewBox="0 0 21 21" width="800" height="800">
        <path fill-rule="evenodd" clip-rule="evenodd" d="M6.38225 12.4964C5.5099 11.215 5 9.6671 5 8C5 3.58172 8.5817 0 13 0C17.4183 0 21 3.58172 21 8C21 12.4183 17.4183 16 13 16C11.3329 16 9.785 15.4901 8.5036 14.6178L2.56066 20.5607C1.97487 21.1464 1.02513 21.1464 0.43934 20.5607C-0.14645 19.9749 -0.14645 19.0251 0.43934 18.4393L6.38225 12.4964zM13 13C15.7614 13 18 10.7614 18 8C18 5.23858 15.7614 3 13 3C10.2386 3 8 5.23858 8 8C8 10.7614 10.2386 13 13 13z" fill="#758CA3"/>
    </symbol>
    <symbol viewBox="0 0 400 100" id="example-2">
        <rect width="300" height="100" style="fill:rgb(0,0,255);stroke-width:3;stroke:rgb(0,0,0)" />
    </symbol>
    </defs>
</svg>